<svg width="370" height="370" viewBox="0 0 370 370" fill="none" xmlns="http://www.w3.org/2000/svg">
<rect width="370" height="370" rx="50" fill="black"/>
<path d="M94.0092 117.73C125.609 94.13 137.843 100.563 140.009 106.73C129.609 161.533 130.676 204.896 132.509 219.727L160.509 172.227C180.909 124.227 194.676 108.562 199.009 106.73C232.609 97.93 234.009 108.394 230.509 114.727C204.509 209.127 217.343 235.727 227.009 237.227C246.209 236.827 249.676 184.727 249.009 158.727C247.809 128.727 265.176 116.893 274.009 114.727C290.809 123.127 281.009 176.227 274.009 201.727C267.343 223.06 245.309 266.527 210.509 269.727C175.709 272.927 171.343 222.06 173.509 196.227L157.009 226.727C131.009 267.527 113.843 269.727 108.509 265.727C76.5092 239.727 85.5092 156.229 94.0092 117.73Z" fill="white"/>
</svg>
